<?xml version="1.0" standalone="no"?><svg xmlns="http://www.w3.org/2000/svg" viewBox="0 0 1440 320"><path fill="#00796b" fill-opacity="1" d="M0,224L30,213.3C60,203,120,181,180,160C240,139,300,117,360,133.3C420,149,480,203,540,208C600,213,660,171,720,165.3C780,160,840,192,900,213.3C960,235,1020,245,1080,213.3C1140,181,1200,107,1260,74.7C1320,43,1380,53,1410,58.7L1440,64L1440,320L1410,320C1380,320,1320,320,1260,320C1200,320,1140,320,1080,320C1020,320,960,320,900,320C840,320,780,320,720,320C660,320,600,320,540,320C480,320,420,320,360,320C300,320,240,320,180,320C120,320,60,320,30,320L0,320Z"></path></svg>